# xmcd
#
# Track frame offsets:
#	150
#	20223
#	45978
#	71860
#	94265
#	113294
#	133305
#	153365
#	172453
#	188776
#	203863
#	221767
#
# Disc length: 3258 seconds
#
# Revision: 0
# Processed by: cddbd v1.5.2PL0 Copyright (c) Steve Scherf et al.
# Submitted via: dBpowerAMP V4.0
#
DISCID=b50cb80c
DTITLE=Tariwen - Aman Iman
DYEAR=2007
DGENRE=Blues
TTITLE0=Cler Achel
TTITLE1=Mano Dayak
TTITLE2=Matadjem Yinmixan
TTITLE3=Ahimana
TTITLE4=Soixante Trois
TTITLE5=Toumast
TTITLE6=Imidiwan Winakalin
TTITLE7=Awa Didjen
TTITLE8=Ikyadarh Dim
TTITLE9=Tamatant Tilay
TTITLE10=Assouf
TTITLE11=Izarharh Tenere
EXTD=
EXTT0=
EXTT1=
EXTT2=
EXTT3=
EXTT4=
EXTT5=
EXTT6=
EXTT7=
EXTT8=
EXTT9=
EXTT10=
EXTT11=
PLAYORDER=
